<svg viewBox="0 0 1965 691" xmlns="http://www.w3.org/2000/svg"
                class="svg-icon logo-img">
                <path fill="#C18636" fill-rule="evenodd" clip-rule="evenodd"
                  d="M302.204 73.3861C299.09 73.7764 295.019 74.479 293.023 74.9475L292.865 74.9907C290.85 75.5424 287.538 76.449 285.438 77.1334C283.203 77.8361 278.572 79.7878 275.06 81.5054C271.547 83.1449 266.517 86.0334 263.883 87.9071C261.248 89.7027 256.618 93.4501 253.584 96.1826C250.55 98.9151 245.999 103.599 243.525 106.566C240.97 109.611 236.978 115.076 234.503 118.667C232.108 122.336 228.755 127.801 227.158 130.768C225.482 133.812 223.965 136.545 223.645 136.857C223.406 137.248 221.171 137.013 218.776 136.389C216.38 135.764 211.351 134.827 207.599 134.359C202.01 133.578 199.296 133.656 192.43 134.671C187.799 135.374 181.492 136.857 178.458 137.95C175.345 139.121 169.836 141.854 166.084 144.118C162.332 146.382 156.424 150.91 152.831 154.345C149.318 157.702 145.087 162.074 143.411 163.948C141.814 165.899 138.221 170.662 135.507 174.487C132.792 178.391 128.322 185.417 125.527 190.101C122.733 194.863 116.027 207.511 110.598 218.206C105.169 228.98 98.064 243.189 94.8706 249.825C91.5973 256.539 86.2483 266.688 82.8952 272.465C79.622 278.321 75.1511 285.659 72.9956 288.86C70.84 292.139 68.0458 296.121 66.6886 297.838C65.4112 299.556 62.2178 303.459 59.5833 306.426C56.9487 309.471 53.1165 313.452 51.1206 315.248C49.1247 317.043 44.8136 320.4 41.5403 322.586C38.2671 324.85 32.998 327.817 29.9642 329.144C26.8506 330.55 22.0605 332.189 19.1864 332.892C16.3123 333.516 11.3625 334.297 8.16906 334.531L2.4209 334.922V346.242C15.6736 345.383 22.3 344.602 25.5733 343.978C28.8465 343.275 34.435 341.792 37.9478 340.699C41.4605 339.606 45.6918 338.044 47.2885 337.186L50.3223 335.702C53.835 343.275 56.8688 350.379 59.3437 356.391C61.7388 362.402 65.0121 371.224 66.5289 375.908C68.0458 380.671 69.882 386.448 70.6005 388.79C71.2392 391.21 72.2771 395.036 72.9158 397.378C73.5545 399.798 74.3528 402.921 74.5923 404.404C74.756 405.204 75.0664 406.927 75.4484 409.047L75.4492 409.051L75.4496 409.054C75.8127 411.07 76.2404 413.443 76.668 415.724C77.5462 420.487 78.5841 430.089 79.0631 437.037C79.622 445.625 79.622 453.823 79.0631 462.176C78.5841 469.202 77.3866 479.039 76.189 484.66C75.0713 490.125 73.8738 495.512 73.4746 496.527C73.194 497.295 72.6767 498.99 72.1168 500.823C71.8802 501.598 71.636 502.398 71.3989 503.163C70.6804 505.739 68.6047 511.36 66.8483 515.654C64.054 522.446 63.7347 524.086 64.054 527.755C64.2935 530.175 65.2516 536.109 66.1298 541.027C67.008 546.024 68.2853 554.221 69.0038 559.374C69.3157 561.61 69.6576 564.17 69.984 566.613C70.4095 569.799 70.8085 572.786 71.0796 574.597C71.4788 577.876 72.4368 587.01 73.2351 594.896C74.273 606.06 74.5924 616.755 74.5125 641.347C74.5125 669.14 74.273 674.527 72.9956 681.944L71.4787 690.532L104.211 691L104.451 676.713C104.611 667.891 104.211 657.274 103.493 648.764C102.774 641.269 101.657 631.276 101.018 626.514C100.379 621.83 99.3414 614.647 98.6229 610.51L98.2151 608.209L98.2131 608.197C97.5991 604.735 96.9672 601.171 96.7068 599.58C96.3076 597.706 95.5891 593.959 95.1101 591.382C94.631 588.806 93.8327 585.293 93.4336 583.575C93.0344 581.858 91.757 576.471 90.5594 571.474C89.4417 566.556 87.2063 558.515 85.7693 553.518C84.2524 548.6 82.4961 543.291 81.8574 541.652C80.7397 538.997 80.7397 538.685 82.017 538.373C82.8154 538.217 85.2105 537.826 87.4459 537.514C89.6015 537.28 95.0303 536.343 99.4212 535.484C103.812 534.625 108.842 533.61 110.598 533.22C112.355 532.908 117.225 531.659 121.376 530.566C125.528 529.395 131.675 527.599 134.948 526.428C138.221 525.335 143.65 523.461 146.923 522.212C150.197 520.963 153.949 519.48 155.306 518.933C156.584 518.465 163.769 515.03 171.273 511.36C178.698 507.769 189.236 501.992 204.405 492.623L210.153 494.341L210.801 494.515C214.116 495.407 219.68 496.904 223.566 497.854C227.717 498.869 233.625 500.274 236.739 500.899C239.772 501.523 245.52 502.616 249.512 503.241C253.424 503.944 259.013 504.802 261.887 505.193C263.717 505.441 266.552 505.785 269.338 506.123L269.345 506.124C270.931 506.316 272.502 506.506 273.862 506.676C277.614 507.066 287.274 507.613 295.418 507.925C303.641 508.238 316.335 508.081 324.159 507.613C331.823 507.145 341.563 506.208 345.714 505.583C349.22 505.056 354.377 504.194 358.155 503.563L358.161 503.562L358.165 503.561C358.858 503.446 359.504 503.338 360.085 503.241C363.837 502.538 370.463 501.133 374.854 500.118C379.245 499.025 385.712 497.23 389.225 496.215C392.737 495.122 399.523 492.702 404.393 490.906C409.184 489.11 416.209 486.144 419.961 484.348C423.714 482.552 426.987 480.991 427.226 480.991C427.546 480.991 427.626 481.772 427.466 482.709C427.306 483.645 426.268 490.594 425.23 498.088C424.113 505.661 422.835 514.561 422.356 517.996C421.957 521.431 420.999 529.863 420.36 536.733C419.722 543.603 418.764 555.08 418.205 562.106C417.566 570.225 417.167 588.728 417.167 611.681C417.167 641.191 417.486 650.872 418.604 660.865C419.323 667.735 420.44 676.167 421.079 679.602C421.693 682.902 422.454 686.707 423.433 690.532H463.472L459.4 682.725C457.165 678.431 454.211 671.951 452.854 668.282C451.417 664.69 449.421 659.069 448.383 655.79C447.265 652.59 445.349 645.719 444.072 640.567L443.865 639.735C442.635 634.775 441.252 629.195 440.798 626.904C440.319 624.562 439.361 619.332 438.723 615.194C438.084 611.134 437.126 604.108 436.727 599.58C436.248 595.13 435.529 584.746 435.13 576.549C434.651 568.43 434.491 555.236 434.731 547.273C434.97 539.388 435.529 528.848 436.008 523.852C436.169 522.204 436.347 520.32 436.528 518.405L436.531 518.373L436.532 518.363L436.534 518.347C436.892 514.563 437.261 510.665 437.525 508.238C437.924 504.646 438.643 498.635 439.122 494.966C439.521 491.374 440.24 486.768 440.639 484.816L440.829 483.919L440.83 483.916C441.26 481.887 441.926 478.743 442.475 476.463C443.034 473.73 443.752 471.544 444.072 471.544C444.391 471.544 448.942 468.578 454.051 464.83C459.24 461.161 466.266 455.618 469.779 452.573C473.212 449.451 478.561 444.142 481.594 440.707C484.708 437.272 489.099 431.651 491.414 428.215C493.809 424.78 496.923 419.55 498.52 416.505C500.036 413.538 502.112 408.62 503.15 405.575C504.667 401.047 504.986 398.471 504.986 389.961C504.986 380.358 504.906 379.656 502.911 376.689C501.713 374.972 500.116 373.02 499.318 372.317C498.44 371.615 496.364 370.443 494.608 369.741C492.851 369.038 489.578 368.492 487.422 368.492C485.187 368.492 481.435 369.272 479.04 370.131C476.645 370.99 473.212 372.629 471.535 373.801C469.859 374.972 466.585 377.86 464.35 380.28C462.115 382.622 458.602 387.385 456.526 390.82C454.45 394.255 451.576 399.642 450.059 402.843C448.542 406.122 446.706 410.337 445.908 412.211C445.11 414.163 443.114 419.94 441.437 425.093C439.681 430.245 436.807 440.394 431.538 460.693L425.949 463.347C422.835 464.752 417.327 467.173 413.574 468.656C409.822 470.217 404.633 472.091 401.998 472.95C399.364 473.809 395.372 475.058 393.216 475.682C390.981 476.385 385.472 477.79 380.842 478.883C376.211 479.976 369.425 481.459 365.673 482.084C361.921 482.709 354.736 483.802 349.706 484.426C344.676 485.051 333.18 485.987 324.159 486.534C310.906 487.315 305.317 487.315 295.019 486.534C287.993 485.987 277.934 484.816 272.665 484.036C267.395 483.177 260.53 482.006 257.496 481.381C254.382 480.757 250.071 479.742 247.916 479.117C245.839 478.537 241.626 477.283 238.094 476.232L238.091 476.231L237.297 475.995C233.705 474.823 230.751 473.73 230.751 473.496C230.751 473.34 235.301 468.812 240.81 463.581C246.399 458.351 254.382 450.309 258.534 445.781C262.685 441.331 269.551 433.056 273.862 427.435C278.093 421.892 283.522 414.163 285.997 410.259C288.392 406.434 291.745 400.657 293.502 397.378C295.258 394.177 297.972 388.556 299.569 384.886C301.166 381.295 303.242 375.596 304.12 372.239C305.078 368.882 305.796 365.759 305.796 365.213C305.796 364.666 303.8 363.729 301.246 363.183C298.691 362.558 296.216 361.934 295.817 361.778C295.338 361.622 293.981 364.198 292.703 367.555C291.426 370.912 289.35 375.674 287.993 378.251C286.716 380.827 283.762 385.745 281.606 389.18C279.371 392.615 275.06 398.783 272.026 402.843C268.912 406.98 264.761 412.211 262.765 414.553C260.769 416.973 257.256 420.799 255.101 423.141C252.865 425.561 247.836 430.636 243.924 434.461C239.932 438.365 232.906 444.688 228.356 448.592C223.725 452.495 216.939 457.96 213.187 460.771C209.435 463.581 202.09 468.734 196.821 472.169C191.552 475.604 183.648 480.444 179.257 482.943C174.866 485.363 167.521 489.266 162.891 491.53C158.26 493.795 150.037 497.464 144.528 499.65C139.02 501.914 129.679 505.349 123.771 507.223C117.863 509.174 108.842 511.751 103.812 512.922C98.7826 514.171 91.5175 515.81 87.6854 516.591C83.8533 517.372 80.5002 517.84 80.2607 517.606C80.0212 517.45 80.6599 515.108 81.6977 512.531C82.8154 509.955 84.8113 504.568 86.1685 500.43C87.6055 496.371 89.2821 490.75 89.9208 487.939C90.5595 485.207 91.5973 479.898 92.236 476.229C92.8747 472.637 93.8327 465.923 94.3117 461.395C94.8706 456.477 95.0302 445.937 94.7907 434.851C94.5512 424.78 93.9126 414.241 93.4336 411.43C93.2269 410.252 92.8867 408.405 92.4959 406.285L92.4954 406.282C91.9805 403.487 91.3781 400.218 90.8788 397.378C90.0006 392.459 88.2442 384.574 87.0467 379.812C86.6085 378.205 86.142 376.469 85.6893 374.785C84.8225 371.559 84.0059 368.52 83.5339 366.93C82.8952 364.588 80.8993 358.811 79.2228 354.049C77.4664 349.365 75.1512 343.353 74.0335 340.777C72.9158 338.2 71.0795 333.985 69.882 331.408C68.6845 328.832 67.5668 326.49 67.4071 326.178C67.2474 325.865 68.0458 324.772 69.2433 323.835C70.4409 322.899 74.3528 319.229 77.8656 315.794C81.3783 312.359 85.0508 308.612 86.0088 307.441C87.0467 306.27 89.7611 302.757 92.0763 299.634C94.4714 296.511 98.4632 290.656 101.018 286.518C103.573 282.458 107.964 274.573 110.917 268.952C113.792 263.409 117.225 256.539 118.502 253.728C119.481 251.635 120.928 248.441 122.126 245.798L122.128 245.793C122.493 244.988 122.834 244.235 123.132 243.579C123.979 241.768 124.861 239.819 125.476 238.461C125.788 237.77 126.032 237.233 126.166 236.943C126.565 236.085 127.763 233.508 128.801 231.088C129.839 228.746 131.994 223.827 133.591 220.158C135.108 216.567 137.343 211.414 138.541 208.838C139.738 206.262 143.171 199.079 146.285 192.834C149.398 186.666 153.949 178.547 156.424 174.877C158.819 171.286 161.613 167.383 162.491 166.368C163.239 165.437 165.319 163.203 167.4 160.97C167.762 160.581 168.124 160.192 168.479 159.81C170.874 157.312 175.345 153.72 178.458 151.925C181.492 150.051 185.803 147.865 188.039 147.162C190.833 146.226 194.665 145.757 200.813 145.757C205.603 145.679 211.431 146.148 213.746 146.616C216.061 147.162 218.137 147.865 218.376 148.177C218.536 148.49 217.658 151.534 216.38 154.97C215.183 158.405 213.187 164.416 212.149 168.241C211.031 172.145 209.195 179.718 208.078 185.027C206.96 190.413 205.523 200.25 204.804 206.886C204.166 213.6 203.607 222.969 203.607 227.809C203.607 232.649 204.166 241.393 204.804 247.327C205.523 253.26 207.04 261.77 208.157 266.22C209.275 270.748 211.431 277.462 212.947 281.053C214.385 284.722 217.179 290.187 219.175 293.154C221.091 296.199 223.885 299.868 225.322 301.429C226.759 302.991 229.713 305.567 231.948 307.207C234.104 308.846 237.218 310.642 238.734 311.344C240.251 311.969 243.285 312.984 245.52 313.53C247.676 314.155 251.588 314.623 254.063 314.623C257.176 314.623 260.051 314.077 262.845 312.828C265.24 311.813 268.673 309.314 270.748 307.128C272.744 305.099 275.379 301.429 276.656 299.009C277.854 296.667 279.371 292.998 280.009 290.812C280.648 288.704 281.926 283.395 282.724 279.101C283.921 273.168 284.321 267.859 284.4 256.851C284.4 247.327 284.001 239.442 283.123 233.43C282.325 228.512 281.367 222.735 280.888 220.549C280.409 218.441 279.211 213.522 278.093 209.619C277.056 205.793 274.9 199.079 273.303 194.785C271.627 190.491 268.433 183.309 266.038 178.781C263.723 174.331 260.13 168.32 258.055 165.509C256.059 162.777 252.067 158.092 243.924 149.895L245.84 145.445C246.878 142.947 249.193 137.95 250.949 134.281C252.706 130.69 255.819 125.069 257.815 121.79C259.731 118.589 262.685 114.217 264.282 112.031C265.879 109.923 269.152 106.098 271.547 103.599C273.942 101.023 278.014 97.3536 280.648 95.3238C283.283 93.294 287.754 90.5615 290.628 89.2343C293.502 87.9071 297.813 86.2677 300.208 85.565C303.401 84.7063 307.233 84.472 314.179 84.6282C322.322 84.8624 324.638 85.2527 329.348 87.0484C332.382 88.2194 337.252 90.6396 340.126 92.5133C343 94.387 347.391 98.1343 349.945 100.867C352.5 103.599 356.253 108.283 358.328 111.25C360.324 114.295 363.837 120.462 366.152 124.912C368.467 129.441 371.262 135.608 372.459 138.575C373.657 141.62 375.812 147.553 377.249 151.847C378.686 156.141 380.842 162.698 381.959 166.29C383.077 169.959 387.708 187.525 392.338 205.325C395.603 218.15 398.867 230.694 400.776 238.028L400.779 238.042C401.53 240.925 402.07 243 402.318 243.97C403.276 247.405 405.112 253.572 406.469 257.632C407.826 261.77 410.381 268.952 412.217 273.636C413.974 278.399 417.007 285.269 418.844 288.86C420.68 292.529 423.873 297.994 425.949 300.961C428.025 304.006 431.697 308.534 434.172 311.032C436.647 313.53 440.559 316.809 442.874 318.214C445.189 319.698 448.463 321.415 450.059 322.118C451.736 322.743 455.328 323.836 458.043 324.46C460.837 325.085 465.468 325.553 468.422 325.553C471.376 325.553 476.884 325.085 480.636 324.382C484.389 323.757 489.179 322.664 491.414 321.962C493.57 321.259 497.881 319.464 500.915 317.902C504.427 316.107 509.058 312.671 513.209 308.768C516.882 305.333 521.353 300.258 523.189 297.448C524.945 294.715 527.739 289.563 529.336 286.128C531.013 282.692 533.088 277.462 533.967 274.417C534.845 271.45 535.963 267.547 536.442 265.829C536.921 264.112 537.799 259.74 538.437 256.071C539.076 252.479 539.954 246.858 540.433 243.579C540.912 240.378 541.471 231.947 541.711 224.842C542.03 217.816 541.87 205.481 541.391 197.518C540.912 189.633 540.194 179.952 539.715 176.048C539.316 172.223 538.597 166.055 538.118 162.386C537.639 158.795 536.761 152.471 536.122 148.334C535.881 146.97 535.604 145.351 535.314 143.663C534.743 140.325 534.124 136.718 533.647 134.281C533.369 132.889 533.042 131.215 532.71 129.51C532.184 126.816 531.643 124.044 531.252 122.18C530.614 119.213 529.576 114.295 528.937 111.25C528.298 108.283 526.781 101.882 523.348 88.1413L528.937 88.6098C531.109 88.7774 537.168 89.1052 544.068 89.4784C546.806 89.6265 549.676 89.7817 552.488 89.937C562.388 90.4054 576.2 90.5615 583.225 90.2492C588.452 90.075 597.743 89.728 606.497 89.401L606.525 89.3999L606.53 89.3997C609.532 89.2876 612.471 89.1778 615.16 89.0782C625.698 88.6098 638.95 87.9071 644.699 87.4387C650.367 86.9703 659.788 86.1115 665.616 85.4869C671.444 84.8624 678.309 84.3159 680.784 84.3159C684.297 84.3159 686.533 84.8624 690.205 86.658C693.079 87.9852 696.911 90.8738 699.785 93.6843C702.42 96.3387 706.172 100.633 708.088 103.365C710.004 106.019 713.996 113.046 716.95 119.057C719.984 125.069 723.816 134.203 725.572 139.355C727.328 144.508 729.324 151.222 729.963 154.189C730.682 157.234 731.4 161.059 731.72 162.777C731.959 164.494 731.799 166.992 731.4 168.241C730.921 169.569 729.325 171.755 727.728 173.16C726.211 174.565 723.097 176.595 720.942 177.61C718.706 178.703 715.433 180.108 713.517 180.733C712.42 181.059 710.724 181.553 709.025 182.048L709.006 182.053C707.869 182.384 706.731 182.716 705.773 182.997C703.378 183.621 697.39 184.792 692.6 185.495C685.814 186.588 679.347 186.9 664.259 186.822C650.367 186.822 642.383 186.432 636.715 185.573C632.324 184.87 628.412 184.324 628.093 184.324C627.774 184.324 627.534 183.856 627.534 183.309C627.534 182.763 625.857 179.015 623.862 174.877C621.866 170.818 618.193 164.494 615.718 160.825C613.164 157.234 609.012 152.003 606.378 149.27C603.743 146.538 598.873 142.556 595.6 140.448C592.327 138.262 587.297 135.92 584.423 135.062C581.549 134.203 576.759 133.578 573.805 133.578C570.771 133.578 567.498 134.047 566.22 134.671C565.023 135.218 563.107 136.701 561.909 137.95C560.712 139.199 559.195 141.776 558.476 143.649C557.837 145.601 557.279 148.255 557.279 149.505C557.279 150.832 557.917 154.189 558.716 156.921C559.514 159.732 561.43 163.948 563.027 166.29C564.624 168.71 566.779 171.364 567.817 172.223C568.775 173.082 571.649 175.268 574.044 176.985C576.439 178.781 581.309 181.67 584.822 183.309C588.335 185.027 593.923 187.369 597.196 188.384C600.47 189.477 605.499 191.038 608.373 191.741C611.248 192.521 613.802 193.536 614.122 194.005C614.441 194.473 615.08 196.581 615.559 198.689C616.038 200.875 617.076 206.652 617.954 211.57C618.832 216.567 619.87 226.17 620.429 233.04C620.987 240.378 621.147 251.308 620.828 259.193C620.588 266.766 619.95 276.603 619.55 281.053C619.071 285.581 617.954 293.857 617.076 299.4C616.197 305.021 614.76 312.906 613.882 316.965C613.004 321.103 611.088 328.988 609.571 334.531C608.054 340.152 605.739 347.881 604.462 351.707C603.184 355.61 601.028 361.543 599.751 364.979C598.474 368.414 595.839 374.737 594.003 379.031C592.167 383.325 588.255 391.444 585.381 396.987C582.507 402.608 577.317 411.743 573.805 417.286C570.212 422.907 564.783 430.792 561.749 434.851C558.636 438.989 555.123 443.361 554.005 444.61C552.888 445.937 549.056 450.153 545.543 453.979C542.03 457.882 535.963 463.894 532.051 467.329C528.139 470.764 523.349 474.823 521.512 476.307C519.596 477.79 517.281 480.21 516.323 481.694C514.806 484.27 514.726 485.207 515.285 494.575C515.525 500.196 516.403 509.487 517.041 515.264C517.68 521.119 519.277 531.659 520.554 538.685C521.832 545.789 523.668 555.08 524.546 559.374C525.424 563.667 527.819 573.739 529.815 581.624C531.811 589.587 533.727 597.16 534.206 598.409C534.605 599.736 536.202 604.967 537.799 610.119C539.316 615.272 541.471 622.142 542.509 625.343C543.547 628.622 545.942 635.648 547.938 640.957C549.854 646.344 553.287 655.166 555.442 660.475C557.678 665.861 561.749 674.918 569.653 690.922H616.357C608.453 682.803 604.222 678.118 601.827 675.308C599.432 672.575 595.36 667.423 592.646 663.988C590.011 660.553 585.301 653.839 582.187 648.998C578.994 644.158 576.439 640.02 576.439 639.786C576.439 639.63 575.481 637.912 574.284 636.117C573.166 634.321 570.132 628.778 567.578 623.782C565.023 618.863 561.909 612.539 560.632 609.729C559.354 606.996 557.358 602.546 556.241 599.97C555.123 597.394 552.568 590.914 550.493 585.527C548.983 581.511 547.381 577.182 546.414 574.568C546.103 573.727 545.858 573.064 545.702 572.645C545.144 570.928 543.866 566.946 542.908 563.667C541.95 560.467 540.673 556.329 540.034 554.533C539.395 552.738 537.719 546.18 536.202 540.09C534.685 534.001 532.53 524.554 531.412 519.167C530.294 513.859 529.017 506.832 528.538 503.553C528.059 500.352 527.42 495.278 527.181 492.233L526.702 486.768C536.442 479.664 541.311 475.994 543.707 473.965C545.36 472.617 547.661 470.674 549.663 468.983L549.671 468.976C550.565 468.221 551.4 467.516 552.089 466.938C554.245 464.987 558.955 460.615 562.468 457.18C565.981 453.744 570.452 449.138 572.447 446.952C574.443 444.844 577.637 441.175 579.633 438.755C581.628 436.413 585.061 432.197 587.217 429.387C589.452 426.654 593.444 421.189 596.079 417.286C598.713 413.46 602.386 407.839 604.142 404.794C605.898 401.828 609.491 395.348 612.046 390.351C614.601 385.433 617.554 379.656 618.513 377.47C619.471 375.362 621.866 369.585 623.782 364.588C625.778 359.67 628.332 352.643 629.45 348.974C630.648 345.383 632.484 339.215 633.522 335.312C634.48 331.486 635.757 326.178 636.316 323.601C636.599 322.299 636.922 320.676 637.235 319.108C637.54 317.575 637.835 316.094 638.072 315.014C638.471 312.906 639.35 307.597 639.909 303.303C640.547 299.009 641.505 288.704 642.064 280.272C642.783 268.484 642.783 261.848 642.064 250.606C641.505 242.72 640.707 233.586 640.228 230.307C639.829 227.106 638.951 222.032 638.232 218.987C637.88 217.353 637.407 215.221 636.96 213.205L636.955 213.184L636.952 213.17C636.59 211.539 636.246 209.987 635.997 208.838L635.806 208.068L635.804 208.06C635.177 205.526 634.338 202.14 633.761 200.094C632.803 196.503 632.883 196.034 633.921 196.425C634.56 196.659 639.429 197.284 644.699 197.674C649.968 198.142 662.103 198.299 671.843 198.064C683.579 197.83 692.84 197.127 699.785 196.113C705.454 195.176 713.038 193.77 716.551 192.912C720.064 191.975 725.413 190.335 728.526 189.242C731.56 188.149 736.111 186.041 738.506 184.636C740.901 183.231 744.174 180.733 745.771 179.093C747.367 177.454 749.363 174.643 750.161 172.926C751.359 170.584 751.678 168.163 751.599 162.386C751.519 158.327 750.88 152.159 750.082 148.724C749.363 145.289 747.766 139.902 746.649 136.623C745.531 133.422 743.216 127.957 741.459 124.522C739.783 121.087 735.951 114.763 733.077 110.469C729.724 105.629 724.454 99.4615 718.946 93.9966C714.156 89.2343 708.008 83.9256 705.374 82.208C702.739 80.4905 698.428 77.9922 695.793 76.665C693.159 75.3378 688.848 73.8545 686.213 73.3861C682.461 72.7615 678.948 72.8396 670.246 73.7764C664.099 74.401 652.762 75.494 645.098 76.1185C637.434 76.7431 621.387 77.6799 609.571 78.0703C597.675 78.5387 580.99 78.851 572.447 78.851C563.905 78.851 549.854 78.5387 541.311 78.0703C532.769 77.6019 522.71 76.7431 518.958 76.1185C515.205 75.494 510.734 74.5571 508.978 74.1668C505.864 73.308 505.705 73.3861 502.352 76.665L498.999 80.022C502.751 94.5431 504.188 100.164 504.507 101.882C504.907 103.599 505.944 108.518 506.822 112.812C507.118 114.256 507.449 115.85 507.777 117.428L507.779 117.436C508.426 120.547 509.06 123.594 509.377 125.303C509.691 126.993 510.246 130.295 510.838 133.821L510.839 133.826L510.86 133.949C511.164 135.759 511.477 137.623 511.772 139.355C512.404 143.062 513.118 147.576 513.648 150.922C513.854 152.228 514.033 153.356 514.167 154.189C514.446 156.316 514.959 160.463 515.488 164.739C515.716 166.584 515.947 168.452 516.163 170.193C516.802 176.048 517.68 186.588 518.159 193.614C518.558 200.719 518.958 211.961 518.958 218.597C518.958 225.311 518.558 235.46 518.079 241.237C517.68 247.092 516.722 254.821 516.083 258.413C515.445 262.082 514.327 267.391 513.608 270.123C512.97 272.934 511.453 277.696 510.335 280.663C509.218 283.707 507.222 288.079 505.944 290.421C504.667 292.842 502.192 296.589 500.515 298.853C498.759 301.117 495.486 304.396 493.171 306.114C490.855 307.909 487.422 310.017 485.427 310.876C483.431 311.735 478.561 312.906 474.649 313.608C468.102 314.623 466.905 314.623 461.476 313.53C458.203 312.828 453.732 311.266 451.576 310.173C449.421 309.002 445.668 306.114 443.193 303.693C440.719 301.351 437.046 296.979 435.05 293.935C432.975 290.968 430.18 286.049 428.743 283.005C427.306 280.038 425.39 275.978 424.592 274.027C423.714 272.153 421.957 267.391 420.6 263.487C419.502 260.391 418.037 255.864 416.926 252.429C416.664 251.619 416.422 250.87 416.209 250.215C415.091 246.78 413.734 242.252 413.175 240.066C412.896 239.013 412.258 236.634 411.46 233.66C410.662 230.682 409.703 227.109 408.784 223.671C408.24 221.541 407.665 219.314 407.111 217.17L407.103 217.141L407.102 217.136C405.874 212.379 404.753 208.04 404.314 206.106C404.011 204.811 403.618 203.182 403.23 201.57C402.799 199.78 402.372 198.01 402.078 196.737C401.682 195.284 400.916 192.357 400.068 189.114L400.062 189.087C399.545 187.112 398.998 185.021 398.486 183.075C397.049 177.922 395.212 171.13 394.334 167.851C393.456 164.65 392.019 160.122 391.221 157.702C390.677 156.108 389.801 153.394 388.945 150.739L388.939 150.721L388.937 150.717C388.538 149.478 388.143 148.253 387.788 147.162C386.67 143.727 384.993 139.043 384.035 136.623C383.077 134.281 381.88 131.314 381.401 130.065C380.842 128.738 378.527 123.819 376.132 119.135C373.736 114.373 369.745 107.503 367.19 103.833C364.635 100.242 360.643 95.1677 358.328 92.6694C356.013 90.1712 351.782 86.3457 348.908 84.3159C346.034 82.2861 341.403 79.5536 338.529 78.2264C335.655 76.9773 331.024 75.4159 328.15 74.7133C325.276 74.0106 319.528 73.308 315.377 73.0738C311.225 72.9176 305.238 73.0738 302.204 73.3861ZM573.884 144.43C571.33 144.43 570.691 144.82 569.653 146.772C568.535 148.958 568.615 149.583 569.813 154.033C570.931 157.78 572.128 159.81 575.242 163.089C577.397 165.353 581.389 168.554 584.024 170.193C586.658 171.833 591.289 174.097 594.402 175.268C597.436 176.517 601.987 178.156 604.382 178.937C606.777 179.718 609.012 180.42 609.331 180.42C609.651 180.42 609.172 178.547 608.294 176.283C607.336 174.019 605.659 170.427 604.541 168.241C603.424 166.134 601.108 162.464 599.352 160.044C597.596 157.702 594.881 154.657 593.285 153.174C591.688 151.769 589.133 149.817 587.616 148.88C586.099 147.865 582.986 146.46 580.83 145.757C578.595 145.055 575.481 144.43 573.884 144.43ZM240.73 163.011C239.932 162.542 239.453 163.011 239.134 164.572C238.814 165.743 238.096 168.32 237.537 170.193C236.978 172.145 235.86 176.361 235.142 179.562C234.86 180.849 234.541 182.245 234.238 183.569L234.234 183.585L234.234 183.588C233.767 185.63 233.339 187.5 233.146 188.54C232.747 190.257 231.869 195.41 231.15 199.86C230.511 204.388 229.553 212.117 229.154 217.035C228.755 222.032 228.356 231.322 228.356 237.724C228.356 244.204 228.675 253.182 229.154 257.632C229.633 262.16 230.511 268.484 231.23 271.685C231.948 274.964 233.226 279.492 234.024 281.834C234.902 284.254 236.579 288.079 237.696 290.421C238.894 292.842 241.449 296.355 243.445 298.307C246.079 300.883 248.235 302.132 251.109 302.913C254.702 303.85 255.42 303.771 258.134 302.444C259.891 301.664 261.887 300.258 262.685 299.4C263.404 298.541 264.921 296.277 266.038 294.325C267.156 292.451 268.593 288.938 269.311 286.518C269.95 284.176 271.148 279.101 271.786 275.198C272.585 270.982 273.064 263.565 273.064 256.305C273.064 249.669 272.505 240.691 271.786 236.006C271.148 231.4 269.87 224.296 268.992 220.158C268.114 216.099 266.038 208.76 264.362 203.763C262.605 198.845 260.13 192.365 258.693 189.32C257.256 186.354 254.382 181.045 252.227 177.61C250.151 174.175 246.878 169.647 245.041 167.461C243.285 165.353 241.289 163.323 240.73 163.011ZM487.981 379.5C487.662 379.578 485.506 380.358 483.271 381.295C480.237 382.544 477.922 384.262 474.888 387.775C472.573 390.351 468.661 396.363 466.186 401.047C463.711 405.731 460.278 412.836 458.682 416.895C457.005 421.033 455.169 425.951 454.53 427.825C454.031 429.351 452.898 433.213 451.702 437.287L451.675 437.382C451.35 438.49 451.02 439.612 450.698 440.707C449.181 445.859 448.143 450.309 448.303 450.466C448.463 450.7 449.101 450.544 449.66 450.075C449.918 449.859 450.735 449.229 451.862 448.359C453.18 447.342 454.921 445.999 456.686 444.61C459.959 442.112 465.547 437.194 469.14 433.758C472.653 430.323 477.603 424.858 479.998 421.58C482.473 418.379 485.506 413.851 486.864 411.43C488.221 409.088 490.297 404.873 491.414 402.062C492.532 399.33 493.65 394.879 493.969 392.303C494.208 389.727 494.208 386.37 493.889 384.73C493.49 382.544 492.851 381.529 491.015 380.593C489.658 379.968 488.301 379.5 487.981 379.5Z">
                </path>
                <path fill="#C18636"
                  d="M267.874 691L263.084 687.721C260.45 685.926 256.298 682.881 253.903 680.851C251.508 678.899 246.878 674.683 243.684 671.482C240.411 668.203 235.222 662.27 232.108 658.133C228.994 654.073 224.364 647.593 221.889 643.689C219.414 639.864 215.582 633.15 213.347 628.856C211.191 624.562 207.599 616.833 205.363 611.681C203.128 606.528 200.413 599.736 199.375 596.457C198.258 593.256 196.422 587.791 195.384 584.356C194.266 580.921 192.43 574.441 191.312 569.913C190.194 565.463 188.598 558.203 187.799 553.909C186.921 549.615 185.803 543.838 185.324 541.027C184.845 538.295 184.047 532.127 183.648 527.365C183.169 522.681 182.699 513.849 182.699 513.849L170.874 519.546V523.502C170.874 523.502 171.433 531.034 172.072 540.246C172.71 549.537 173.748 560.779 174.387 565.229C174.917 568.991 175.669 573.992 176.182 577.413L176.463 579.281C176.942 582.56 178.059 588.65 179.017 592.944C179.326 594.451 179.654 596.036 179.963 597.532L179.966 597.546C180.537 600.305 181.046 602.761 181.253 603.874C181.652 605.591 182.53 609.026 183.169 611.524C183.887 614.023 185.005 618.004 185.644 620.503C186.362 623.001 188.438 629.559 190.354 635.102C192.27 640.723 195.703 649.467 197.938 654.619C200.254 659.772 204.245 668.047 206.96 672.966C209.594 677.962 213.027 683.818 214.464 686.082C215.981 688.346 217.179 690.376 217.179 690.532L267.874 691Z">
                </path>
                <path fill="#C18636"
                  d="M573.725 4.13772C573.485 6.32369 572.926 13.4281 572.447 19.9079C571.968 26.3097 571.25 35.4439 570.771 40.2062C570.292 44.9685 569.893 48.872 569.813 49.0281C569.733 49.1843 566.22 48.872 562.069 48.3255C557.917 47.8571 551.93 46.8422 548.896 46.1395L543.307 44.8123C542.277 43.211 541.279 41.6609 540.313 40.1612L540.304 40.1462C535.812 33.1712 532.024 27.2869 528.937 22.4062L522.151 11.7105C514.646 16.2386 512.65 17.8781 512.81 18.3465C513.05 18.7369 517.92 26.4658 523.748 35.522C529.496 44.5001 534.685 52.3852 535.164 53.0097C535.723 53.5562 537.559 54.8834 539.316 55.8983C541.072 56.9132 545.543 58.7869 549.295 60.036C553.207 61.4413 559.993 62.9246 565.262 63.6273C570.292 64.2518 576.838 64.7983 579.872 64.7983C582.826 64.7983 589.452 64.2518 594.642 63.5492C599.751 62.9246 606.697 61.4413 609.97 60.3483C613.243 59.2553 617.714 57.2255 619.95 55.8983C622.983 54.0246 624.979 51.7606 629.051 45.6711C631.845 41.3772 636.955 33.4141 640.467 27.8711C643.9 22.4062 646.695 17.8 646.695 17.5658C646.695 17.3316 644.539 15.9263 641.904 14.443L637.114 11.7105C633.043 18.0342 628.253 25.6071 623.941 32.4772L615.958 45.1246C607.336 47.0764 602.226 47.9352 599.192 48.4036C596.159 48.7939 592.726 49.1843 591.608 49.1843C589.62 49.1843 589.612 49.1068 588.586 38.6084L588.574 38.4887C588.162 34.1141 587.62 27.957 587.171 22.865C587.012 21.0506 586.864 19.3713 586.738 17.9562C586.339 12.5693 585.78 6.32369 585.541 4.05965L585.221 0H574.204L573.725 4.13772Z">
                </path>
                <rect x="861.74" y="23.0318" width="1100.13" height="645.947" fill="#fff" stroke="#C38635"
                  stroke-width="5.04646"></rect>
                <path
                  d="M1029.03 69.0239L1025.86 92.1904H957.631V164.863H1016.98V188.03H957.631V264.511H1030.3V287.677H928.752V69.0239H1029.03Z"
                  fill="#C18636"></path>
                <path d="M1086.02 69.0239V262.289H1158.69L1155.52 287.677H1057.14V69.0239H1086.02Z" fill="#C18636">
                </path>
                <path d="M1205.42 69.0239V287.677H1176.54V69.0239H1205.42Z" fill="#C18636"></path>
                <path d="M1353.99 69.0239L1350.82 93.1424H1302.27V287.677H1273.39V93.1424H1223.56V69.0239H1353.99Z"
                  fill="#C18636"></path>
                <path
                  d="M1470.69 69.0239L1467.52 92.1904H1399.29V164.863H1458.64V188.03H1399.29V264.511H1471.96V287.677H1370.41V69.0239H1470.69Z"
                  fill="#C18636"></path>
                <rect x="1616.19" y="20.5081" width="348.206" height="328.02" fill="#242424"></rect>
                <rect x="859.216" y="348.529" width="1105.17" height="322.973" fill="#C18636"></rect>
                <path
                  d="M1770.93 86.1121C1780.88 86.1121 1788.79 89.6664 1794.65 96.775C1800.69 103.706 1803.71 112.947 1803.71 124.499C1803.71 134.628 1800.87 143.336 1795.18 150.623C1789.67 157.731 1780.61 165.64 1767.99 174.348L1818.91 233.26C1825.84 216.555 1830.99 197.717 1834.37 176.747L1839.97 177.813C1836.41 199.672 1830.64 219.399 1822.64 236.992L1850.63 269.248L1846.37 272.447L1819.71 242.057C1813.84 252.009 1806.91 259.74 1798.92 265.249C1791.1 270.581 1781.68 273.246 1770.66 273.246C1758.04 273.246 1747.64 269.07 1739.47 260.717C1731.29 252.187 1727.21 240.813 1727.21 226.596C1727.21 214.867 1729.87 205.004 1735.2 197.006C1740.54 188.832 1748.62 180.923 1759.46 173.281C1750.93 163.152 1744.98 154.977 1741.6 148.757C1738.4 142.359 1736.8 134.628 1736.8 125.565C1736.8 113.658 1739.91 104.15 1746.13 97.0416C1752.53 89.7552 1760.8 86.1121 1770.93 86.1121ZM1770.93 91.4435C1762.4 91.4435 1755.55 94.5535 1750.4 100.774C1745.25 106.994 1742.67 115.169 1742.67 125.298C1742.67 132.94 1744 139.693 1746.67 145.558C1749.51 151.245 1755.38 159.508 1764.26 170.349C1776.17 162.53 1784.7 155.243 1789.85 148.49C1795.18 141.737 1797.85 133.74 1797.85 124.499C1797.85 114.013 1795.36 105.927 1790.39 100.24C1785.41 94.3758 1778.92 91.4435 1770.93 91.4435ZM1763.19 177.013C1753.07 183.767 1745.51 191.053 1740.54 198.872C1735.74 206.692 1733.34 215.933 1733.34 226.596C1733.34 238.858 1736.8 248.81 1743.74 256.452C1750.67 263.916 1759.64 267.648 1770.66 267.648C1780.79 267.648 1789.41 265.249 1796.52 260.451C1803.63 255.475 1810.02 248.1 1815.71 238.325L1763.19 177.013Z"
                  fill="white"></path>
                <path d="M964.191 408.772V589.153H1032.02L1029.06 612.848H937.238V408.772H964.191Z" fill="white"></path>
                <path
                  d="M1170.55 558.053C1170.55 568.913 1168.18 578.786 1163.45 587.672C1158.9 596.558 1152.09 603.567 1143.01 608.701C1133.92 613.835 1123.06 616.402 1110.43 616.402C1091.27 616.402 1076.46 610.972 1066 600.112C1055.53 589.054 1050.3 575.034 1050.3 558.053V408.772H1077.25V555.979C1077.25 581.057 1088.31 593.596 1110.43 593.596C1132.54 593.596 1143.6 581.057 1143.6 555.979V408.772H1170.55V558.053Z"
                  fill="white"></path>
                <path
                  d="M1272.5 502.665L1322.85 612.848H1294.42L1256.21 520.732L1218.29 612.848H1191.04L1240.51 504.146L1195.19 408.772H1223.63L1256.8 487.263L1290.56 408.772H1317.52L1272.5 502.665Z"
                  fill="white"></path>
                <path
                  d="M1462.77 558.053C1462.77 568.913 1460.4 578.786 1455.66 587.672C1451.12 596.558 1444.3 603.567 1435.22 608.701C1426.14 613.835 1415.28 616.402 1402.64 616.402C1383.49 616.402 1368.68 610.972 1358.21 600.112C1347.74 589.054 1342.51 575.034 1342.51 558.053V408.772H1369.47V555.979C1369.47 581.057 1380.52 593.596 1402.64 593.596C1424.75 593.596 1435.81 581.057 1435.81 555.979V408.772H1462.77V558.053Z"
                  fill="white"></path>
                <path
                  d="M1597.56 612.848L1557.87 525.471C1556.49 525.669 1554.41 525.768 1551.65 525.768H1533.29V612.848H1506.33V408.772H1547.21C1571.1 408.772 1588.87 413.708 1600.52 423.581C1612.17 433.454 1618 447.672 1618 466.233C1618 479.265 1614.94 490.521 1608.81 499.999C1602.69 509.28 1593.91 516.092 1582.45 520.436L1627.18 612.848H1597.56ZM1549.28 505.034C1563.5 505.034 1573.76 501.974 1580.08 495.852C1586.4 489.533 1589.56 479.66 1589.56 466.233C1589.56 453.793 1586.3 444.71 1579.79 438.983C1573.27 433.059 1562.31 430.098 1546.91 430.098H1533.29V505.034H1549.28Z"
                  fill="white"></path>
                <path
                  d="M1761.53 408.772L1707.62 534.357V612.848H1680.67V534.653L1626.76 408.772H1655.49L1694.88 510.662L1733.98 408.772H1761.53Z"
                  fill="white"></path>
              </svg>